<svg id="Layer_1" data-name="Layer 1" xmlns="http://www.w3.org/2000/svg" viewBox="0 0 208 50.82"><defs><style>.cls-1{fill:#e1ccb4;}.cls-2{fill:#b7b9b9;}</style></defs><path class="cls-1" d="M138.813,48.935a12.89754,12.89754,0,0,1-10.96582-6.0957H80.45853A12.90224,12.90224,0,0,1,69.49271,48.935h-13.46a13.08426,13.08426,0,0,1-13-13.13867V15.25234a13.084,13.084,0,0,1,13-13.13769h13.46a12.91257,12.91257,0,0,1,10.2124,5.01514h48.895A12.91568,12.91568,0,0,1,138.813,2.11465h13.46a13.08436,13.08436,0,0,1,13,13.13769v20.544a13.08458,13.08458,0,0,1-13,13.13867Z" transform="translate(-0.15287 -0.11465)"/><path d="M152.27286,4.11465a11.06956,11.06956,0,0,1,11,11.13787V35.79677a11.06957,11.06957,0,0,1-11,11.13788h-13.46a10.977,10.977,0,0,1-9.799-6.095H79.29184a10.977,10.977,0,0,1-9.79895,6.095h-13.46a11.06957,11.06957,0,0,1-11-11.13788V15.25252a11.06956,11.06956,0,0,1,11-11.13787h13.46a10.95166,10.95166,0,0,1,9.18408,5.015h50.95185a10.95167,10.95167,0,0,1,9.18407-5.015h13.46m0-4h-13.46a14.89147,14.89147,0,0,0-11.14871,5.015H80.6416A14.89134,14.89134,0,0,0,69.49289.11465h-13.46a15.08647,15.08647,0,0,0-15,15.13787V35.79677a15.08648,15.08648,0,0,0,15,15.13788h13.46a14.86943,14.86943,0,0,0,12.02323-6.095h45.27357a14.86947,14.86947,0,0,0,12.0232,6.095h13.46a15.08648,15.08648,0,0,0,15-15.13788V15.25252a15.08647,15.08647,0,0,0-15-15.13787Z" transform="translate(-0.15287 -0.11465)"/><rect class="cls-2" x="161.12011" y="19.18018" width="44.87988" height="12.45947"/><path d="M204.15287,21.29465v8.46h-40.88v-8.46h40.88m4-4h-48.88v16.46h48.88v-16.46Z" transform="translate(-0.15287 -0.11465)"/><rect class="cls-2" x="2" y="19.18018" width="44.87988" height="12.45947"/><path d="M45.03287,21.29465v8.46h-40.88v-8.46h40.88m4-4H.15287v16.46h48.88v-16.46Z" transform="translate(-0.15287 -0.11465)"/><path class="cls-1" d="M152.27286,4.11464h-13.46a10.95165,10.95165,0,0,0-9.18408,5.015H78.677a10.95168,10.95168,0,0,0-9.18409-5.015h-13.46a11.06957,11.06957,0,0,0-11,11.13788V35.79677a11.06957,11.06957,0,0,0,11,11.13788h13.46a10.977,10.977,0,0,0,9.79895-6.095H129.014a10.977,10.977,0,0,0,9.799,6.095h13.46a11.06956,11.06956,0,0,0,11-11.13788V15.25252A11.06956,11.06956,0,0,0,152.27286,4.11464Z" transform="translate(-0.15287 -0.11465)"/></svg>