<?xml version="1.0" encoding="UTF-8"?>
<svg id="Layer_1" data-name="Layer 1" xmlns="http://www.w3.org/2000/svg" xmlns:xlink="http://www.w3.org/1999/xlink">
  <defs>
    <style>
      .cls-1 {
        fill: url(#linear-gradient);
      }

      .cls-1, .cls-2, .cls-3, .cls-4 {
        stroke-width: 0px;
      }

      .cls-3 {
        fill: url(#linear-gradient-2);
      }

      .cls-4 {
        fill: url(#linear-gradient-3);
      }
    </style>
    <linearGradient id="linear-gradient" x1="87.56" y1="-27.44" x2="212.44" y2="97.44" gradientUnits="userSpaceOnUse">
      <stop offset="0" stop-color="#e1ccb4"/>
      <stop offset="1" stop-color="#cc967a"/>
    </linearGradient>
    <linearGradient id="linear-gradient-2" x1="0" y1="35" x2="50" y2="35" gradientUnits="userSpaceOnUse">
      <stop offset="0" stop-color="#ccc"/>
      <stop offset=".51" stop-color="#cacaca"/>
      <stop offset=".7" stop-color="#c3c3c3"/>
      <stop offset=".83" stop-color="#b7b7b7"/>
      <stop offset=".94" stop-color="#a6a6a6"/>
      <stop offset="1" stop-color="#999"/>
    </linearGradient>
    <linearGradient id="linear-gradient-3" x1="22.09" y1="132.32" x2="72.09" y2="132.32" gradientTransform="translate(322.09 167.32) rotate(-180)" xlink:href="#linear-gradient-2"/>
    <linearGradient id="gold" gradientTransform="rotate(45)">
      <stop offset="0" stop-color="rgb(255, 229, 89)"/>
      <stop offset="1" stop-color="rgb(255, 154, 0)"/>
    </linearGradient>
    <linearGradient id="silver" gradientTransform="rotate(45)">
      <stop offset="0" stop-color="rgb(250, 250, 250)"/>
      <stop offset="1" stop-color="rgb(180, 180, 180)"/>
    </linearGradient>
  
  </defs>
  <path class="cls-1" d="m232.73,0h-22.76c-5.5,0-9.96,4.46-9.96,9.96v.04h-100v-.04c0-5.5-4.46-9.96-9.96-9.96h-22.76c-9.54,0-17.27,7.73-17.27,17.27v35.45c0,9.54,7.73,17.27,17.27,17.27h22.76c5.5,0,9.96-4.46,9.96-9.96v-.04h100v.04c0,5.5,4.46,9.96,9.96,9.96h22.76c9.54,0,17.27-7.73,17.27-17.27V17.27c0-9.54-7.73-17.27-17.27-17.27Z"/>
  <rect class="cls-3" y="28.75" width="50" height="12.5"/>
  <rect class="cls-4" x="250" y="28.75" width="50" height="12.5"/>
</svg>